<svg width="19" height="20" viewBox="0 0 19 20" fill="none" xmlns="http://www.w3.org/2000/svg">
<path d="M16.814 15.533C17.2509 14.9933 17.5694 14.1754 17.4437 12.9874C17.6551 12.9857 17.8429 12.984 18.0029 12.9825C18.2262 12.9804 18.3956 12.9788 18.4998 12.9787C18.5004 12.9937 18.4998 13.015 18.4959 13.0435C17.2613 16.8042 13.8028 19.4995 9.74107 19.4995C4.65002 19.4995 0.5 15.2607 0.5 9.99951C0.499999 4.74071 4.6501 0.499512 9.74107 0.499511C13.797 0.499511 17.2582 3.19331 18.4841 6.98256C18.4884 7.01179 18.4896 7.03409 18.4894 7.05033C18.3843 7.05019 18.2105 7.0489 17.9803 7.0472C17.8528 7.04625 17.7081 7.04518 17.5481 7.04411C17.0831 7.04098 16.4941 7.03784 15.8408 7.03784C15.2796 7.03784 14.8008 7.14741 14.4156 7.32607C14.2497 6.43266 13.9433 5.52492 13.3366 4.78116C12.5171 3.77663 11.2178 3.15035 9.23304 3.15035C8.15163 3.15035 7.23938 3.50997 6.50599 4.11034C6.00023 3.96927 5.0436 3.83507 3.8552 4.31121L3.63454 4.39962L3.56381 4.62656L4.04116 4.77535C3.56381 4.62656 3.56366 4.62703 3.56351 4.62751L3.56321 4.62848L3.5626 4.63048L3.56133 4.63473L3.55863 4.64421C3.55675 4.65096 3.55476 4.65858 3.55269 4.66708C3.54856 4.68407 3.54416 4.70453 3.53995 4.72849C3.53152 4.77645 3.52389 4.83812 3.52054 4.91379C3.51383 5.06542 3.52441 5.27087 3.57842 5.53264C3.67937 6.02184 3.9311 6.70391 4.50093 7.60088C4.3101 8.3807 4.21585 9.19694 4.21111 10.0099L4.21108 10.0099L4.21111 10.0158C4.21585 10.829 4.31017 11.6456 4.50114 12.4256C3.93092 13.3286 3.67923 14.0138 3.57835 14.5043C3.5244 14.7667 3.51384 14.9724 3.52054 15.1242C3.52389 15.1999 3.53151 15.2616 3.53994 15.3096C3.54415 15.3336 3.54854 15.354 3.55268 15.3711C3.55474 15.3796 3.55674 15.3872 3.55862 15.394L3.56133 15.4034L3.5626 15.4077L3.56321 15.4097L3.56351 15.4107C3.56366 15.4112 3.56381 15.4116 4.04116 15.2628L3.56381 15.4116L3.63454 15.6386L3.8552 15.727C5.03721 16.2006 5.99352 16.0717 6.51067 15.9203C7.24352 16.5216 8.15432 16.8795 9.23304 16.8795C11.213 16.8795 12.5126 16.254 13.3346 15.2519C13.9444 14.5085 14.2543 13.6008 14.4225 12.7072C14.5917 12.7852 14.7785 12.8497 14.9822 12.8973C15.0611 13.1372 15.1247 13.4413 15.0978 13.7507C15.0636 14.1431 14.8833 14.5801 14.2856 14.9393L14.2853 14.9394L14.2718 14.9474C14.2611 14.9538 14.247 14.9624 14.23 14.9733C14.196 14.9949 14.15 15.0256 14.0959 15.0653C13.9882 15.1443 13.8449 15.2613 13.6985 15.4168C13.4084 15.7248 13.0807 16.2117 13.0364 16.8684L13.0354 16.882L13.0353 16.8957L13.5352 16.902C13.0353 16.8957 13.0353 16.8958 13.0353 16.896L13.0353 16.8963L13.0353 16.897L13.0352 16.8988L13.0352 16.9034L13.0353 16.9168C13.0353 16.9276 13.0356 16.9419 13.0362 16.959C13.0373 16.9929 13.0398 17.04 13.0456 17.0935C13.0549 17.1809 13.0793 17.3604 13.1671 17.5189C13.2135 17.6027 13.3045 17.7298 13.4689 17.8039C13.6511 17.8859 13.8344 17.8637 13.9765 17.8028C14.1051 17.7477 14.2085 17.6591 14.2891 17.5749C14.3734 17.4868 14.4573 17.3775 14.5427 17.2494L14.5648 17.2162L14.5782 17.187C14.5785 17.1864 14.579 17.1855 14.5795 17.1846C14.5836 17.1772 14.5926 17.1616 14.6075 17.1392C14.6373 17.0944 14.6908 17.0224 14.7756 16.9354C14.9424 16.7643 15.237 16.5284 15.7256 16.3286C15.7308 16.3267 15.7367 16.3247 15.7432 16.3223C15.7648 16.3145 15.7931 16.3036 15.8271 16.2892C15.895 16.2604 15.9861 16.2173 16.0908 16.156C16.2999 16.0338 16.5684 15.8365 16.814 15.533ZM14.5771 17.1891C14.577 17.1893 14.577 17.1893 14.5771 17.1891L14.5771 17.1891Z" fill="#FFA501" stroke="#FFA501"/>
</svg>
